<svg aria-hidden="true" style="position: absolute; width: 0; height: 0; overflow: hidden;" version="1.1" xmlns="http://www.w3.org/2000/svg" xmlns:xlink="http://www.w3.org/1999/xlink">
<defs>
<symbol id="company-logo" viewBox="0 0 101 32">
<path d="M19.322 7.547l0.018 0.014 0.941 0.783 0.001 14.512c-3.326 2.746-6.673 5.468-10.040 8.163-0.214-0.021-5.76-4.582-8.577-6.899l-0.079-0.065c-0.722-0.594-1.253-1.030-1.449-1.189l-0.010-14.515 10.030-8.218c0.327 0.046 6.588 5.265 9.165 7.412zM14.991 10.512l-0.011-0.018-0.002-0.003-0.016-0.025c-1.648-2.667-4.536-7.339-4.783-7.516l-5.82 9.273 0.013 6.437 1.17 1.92c0.512 0.073 1.029 0.156 1.548 0.24 1.052 0.17 2.111 0.341 3.155 0.428l1.393-0.209c1.076-0.163 2.152-0.325 3.229-0.469l1.174-1.823v-6.542c-0.14-0.22-0.531-0.853-1.050-1.692zM16.476 12.983c-0.039 1.187-0.030 2.381-0.020 3.572 0.004 0.485 0.008 0.969 0.009 1.452l0.62-1.005c0.179-0.285 0.357-0.571 0.535-0.857l0.203-0.33 0.195-0.319c-0.049-0.081-0.097-0.164-0.146-0.248-0.098-0.169-0.195-0.342-0.293-0.518-0.341-0.608-0.693-1.236-1.102-1.748zM11.832 1.947c-0.481-0.423-1.072-0.941-1.426-1.092l0.011 0.476c0.009 0.374 0.017 0.748 0.021 1.122 1.849 2.983 3.713 5.957 5.592 8.922 0-0.091-0.004-0.234-0.009-0.409v-0.029c-0.022-0.835-0.063-2.354 0.15-2.578 0.006-0.006 0.012-0.012 0.018-0.017l0.032-0.026 0.188 0.082c0.145 0.66 0.11 1.69 0.079 2.607v0.013l-0.002 0.056c-0.013 0.382-0.024 0.742-0.021 1.045 0.247 0.413 0.5 0.825 0.754 1.236 0.441 0.714 0.882 1.429 1.291 2.159l-2.042 3.278 0.005 2.101v1.618l3.386 0.002-0.007-13.964c-2.482-2.088-4.988-4.146-7.519-6.174l-0.078-0.064-0.072-0.060c-0.105-0.090-0.224-0.194-0.35-0.305zM9.919 0.881c-1.059 0.87-2.128 1.733-3.197 2.595-2.072 1.672-4.146 3.347-6.157 5.082l-0.013 13.952 3.376 0.005 0.007-1.866 0.008-1.885-2.010-3.297c0.66-1.119 1.328-2.232 2.006-3.34-0.001-0.059-0.002-0.137-0.005-0.231l-0.009-0.32c-0.031-1.036-0.087-2.937 0.11-3.244l0.131-0.025c0.124 0.094 0.172 0.152 0.193 0.312 0.076 0.573 0.045 1.305 0.016 1.986l-0.011 0.273-0.005 0.14c-0.006 0.152-0.010 0.3-0.011 0.439l5.649-9.015c0.001-0.116 0.010-0.25 0.018-0.393 0.024-0.388 0.051-0.837-0.047-1.127l-0.049-0.042zM7.751 21.34c-0.635-0.113-1.27-0.226-1.901-0.277l0.488 0.784c1.302 2.089 2.607 4.184 3.852 6.305 0.631-1.018 1.256-2.040 1.874-3.065 0.28-0.451 0.557-0.903 0.834-1.356 0.549-0.896 1.098-1.793 1.666-2.676-0.354 0.050-0.774 0.123-1.222 0.2-1.111 0.192-2.389 0.412-3.225 0.39-0.785-0.021-1.575-0.162-2.366-0.303zM4.35 20.836c0.001 0.697 0.014 1.396-0.005 2.093-0.341 0-0.682 0.001-1.023 0.002-0.808 0.002-1.616 0.005-2.424-0.006l9.102 7.43c-0.008-0.335-0.012-0.67-0.015-1.005-0.002-0.234-0.003-0.468-0.002-0.701-0.884-1.5-1.798-2.982-2.712-4.464l-0.017-0.028-0.003-0.005c-0.652-1.057-1.304-2.114-1.945-3.177l-0.956-0.138zM15.804 20.867l-0.036 0.003-0.662 0.102-4.681 7.619-0.018 1.757c0.302-0.246 0.604-0.491 0.906-0.735 0.379-0.306 0.759-0.611 1.139-0.915 2.369-1.901 4.719-3.825 7.049-5.774l-3.456 0.004c0.002-0.154 0.008-0.315 0.015-0.479l0.001-0.014c0.021-0.51 0.044-1.049-0.058-1.513-0.091-0.068-0.103-0.067-0.172-0.058l-0.027 0.003zM3.941 17.799c0.002-0.134 0.005-0.317 0.009-0.533 0.026-1.345 0.075-3.976-0.092-4.231-0.079 0.136-0.16 0.273-0.24 0.409l-0.245 0.41c-0.321 0.535-0.641 1.072-0.933 1.62 0.103 0.17 0.208 0.34 0.313 0.51 0.237 0.381 0.474 0.764 0.687 1.155l0.5 0.817 0.001-0.157zM15.587 20.405c0.196-0.023 0.297-0.056 0.545-0.147 0.045-0.206 0.064-0.549 0.046-0.801-0.198 0.244-0.351 0.519-0.504 0.793l-0.087 0.155zM4.375 19.544c-0.018 0.252 0 0.508 0.046 0.801 0.304 0.096 0.359 0.119 0.417 0.13 0.030 0.006 0.061 0.008 0.128 0.016-0.183-0.324-0.355-0.658-0.591-0.947z"></path>
<path d="M14.991 10.512c-0.206-0.332-0.431-0.697-0.668-1.081 0.233 0.377 0.455 0.735 0.657 1.063l0.011 0.018z"></path>
<path d="M16.029 11.376c0-0.094-0.004-0.244-0.009-0.427v0.009c0.005 0.179 0.009 0.325 0.009 0.418z"></path>
<path d="M4.361 10.918c-0.001 0.033-0.003 0.068-0.004 0.1-0.006 0.152-0.010 0.3-0.011 0.439 0.002-0.17 0.008-0.351 0.015-0.539zM3.938 12.127c-0.001-0.059-0.002-0.137-0.005-0.231l-0.009-0.32c0.007 0.241 0.013 0.435 0.014 0.551z"></path>
<path d="M16.047 22.831c0.003-0.128 0.009-0.261 0.014-0.395l-0.001 0.014c-0.005 0.13-0.010 0.257-0.013 0.381z"></path>
<path d="M3.858 13.035c-0.079 0.136-0.16 0.273-0.24 0.409l-0.050 0.084c0.098-0.164 0.195-0.328 0.29-0.492zM3.939 17.955c0-0.126 0.005-0.372 0.011-0.689 0.002-0.098 0.004-0.203 0.006-0.313-0.009 0.467-0.017 0.837-0.017 1.002z"></path>
<path d="M66.969 28.913v-0.96h0.975c0.334 0 0.621-0.043 0.86-0.129 0.239-0.076 0.44-0.215 0.602-0.416s0.301-0.478 0.416-0.831l2.552-8.2h1.047l-2.666 8.501c-0.153 0.487-0.363 0.879-0.631 1.176-0.268 0.306-0.588 0.526-0.96 0.659s-0.798 0.201-1.276 0.201h-0.918zM69.435 25.774v-0.903h1.362v0.903h-1.362zM69.306 25.774l-2.752-7.397h1.104l2.652 7.397h-1.004z"></path>
<path d="M61.752 25.96v-7.584h0.86v3.168h-0.086c0-1.109 0.244-1.926 0.731-2.451 0.487-0.535 1.252-0.803 2.294-0.803h0.244v0.975h-0.444c-0.822 0-1.448 0.215-1.878 0.645-0.43 0.42-0.645 1.042-0.645 1.864v4.186h-1.075z"></path>
<path d="M58.034 25.96v-10.465h1.075v10.465h-1.075zM56.93 16.369v-0.874h2.179v0.874h-2.179z"></path>
<path d="M52.538 26.204c-0.65 0-1.214-0.11-1.692-0.33-0.478-0.229-0.87-0.53-1.176-0.903-0.306-0.382-0.535-0.808-0.688-1.276-0.143-0.468-0.215-0.951-0.215-1.448v-0.201c0-0.487 0.072-0.965 0.215-1.434 0.153-0.468 0.382-0.889 0.688-1.262s0.688-0.669 1.147-0.889c0.468-0.229 1.013-0.344 1.634-0.344 0.793 0 1.453 0.177 1.978 0.53 0.535 0.354 0.937 0.808 1.204 1.362 0.268 0.545 0.401 1.133 0.401 1.763v0.559h-6.781v-0.831h6.035l-0.272 0.416c0-0.564-0.1-1.056-0.301-1.477-0.191-0.43-0.478-0.765-0.86-1.004-0.373-0.248-0.841-0.373-1.405-0.373-0.593 0-1.085 0.139-1.477 0.416s-0.688 0.645-0.889 1.104c-0.191 0.459-0.287 0.98-0.287 1.563 0 0.573 0.096 1.099 0.287 1.577 0.201 0.468 0.502 0.841 0.903 1.118 0.411 0.277 0.927 0.416 1.548 0.416 0.659 0 1.195-0.148 1.606-0.444 0.411-0.306 0.664-0.664 0.76-1.075h1.004c-0.096 0.506-0.296 0.946-0.602 1.319-0.306 0.363-0.693 0.645-1.161 0.846s-1.004 0.301-1.606 0.301z"></path>
<path d="M33.003 26.817c-0.65 0-1.214-0.11-1.692-0.33-0.478-0.229-0.87-0.53-1.176-0.903-0.306-0.382-0.535-0.808-0.688-1.276-0.143-0.468-0.215-0.951-0.215-1.448v-0.201c0-0.487 0.072-0.965 0.215-1.434 0.153-0.468 0.382-0.889 0.688-1.262s0.688-0.669 1.147-0.889c0.468-0.229 1.013-0.344 1.634-0.344 0.793 0 1.453 0.177 1.978 0.53 0.535 0.354 0.937 0.808 1.204 1.362 0.268 0.545 0.401 1.133 0.401 1.763v0.559h-6.781v-0.831h6.035l-0.272 0.416c0-0.564-0.1-1.056-0.301-1.477-0.191-0.43-0.478-0.765-0.86-1.004-0.373-0.248-0.841-0.373-1.405-0.373-0.593 0-1.085 0.139-1.477 0.416s-0.688 0.645-0.889 1.104c-0.191 0.459-0.287 0.98-0.287 1.563 0 0.573 0.096 1.099 0.287 1.577 0.201 0.468 0.502 0.841 0.903 1.118 0.411 0.277 0.927 0.416 1.548 0.416 0.659 0 1.195-0.148 1.606-0.444 0.411-0.306 0.664-0.664 0.76-1.075h1.004c-0.096 0.507-0.296 0.946-0.602 1.319-0.306 0.363-0.693 0.645-1.161 0.846s-1.004 0.301-1.606 0.301z"></path>
<path d="M24.149 29.484v-0.96h0.86c0.373 0 0.655-0.11 0.846-0.33 0.201-0.21 0.301-0.516 0.301-0.918v-8.286h1.032v8.085c0 0.593-0.081 1.066-0.244 1.419-0.153 0.354-0.401 0.607-0.745 0.76s-0.803 0.229-1.376 0.229h-0.674zM24.923 19.85v-0.86h2.265v0.86h-2.265zM26.356 17.456c-0.258 0-0.454-0.067-0.588-0.201-0.124-0.143-0.186-0.32-0.186-0.53s0.062-0.382 0.186-0.516c0.134-0.143 0.33-0.215 0.588-0.215s0.449 0.072 0.573 0.215c0.124 0.134 0.186 0.306 0.186 0.516s-0.062 0.387-0.186 0.53c-0.124 0.134-0.315 0.201-0.573 0.201z"></path>
<path d="M95.66 14.603c-0.65 0-1.214-0.11-1.692-0.33-0.478-0.229-0.87-0.53-1.176-0.903-0.306-0.382-0.535-0.808-0.688-1.276-0.143-0.468-0.215-0.951-0.215-1.448v-0.201c0-0.487 0.072-0.965 0.215-1.434 0.153-0.468 0.382-0.889 0.688-1.262s0.688-0.669 1.147-0.889c0.468-0.229 1.013-0.344 1.634-0.344 0.793 0 1.453 0.177 1.978 0.53 0.535 0.354 0.937 0.808 1.204 1.362 0.268 0.545 0.401 1.133 0.401 1.763v0.559h-6.781v-0.832h6.035l-0.272 0.416c0-0.564-0.1-1.056-0.301-1.477-0.191-0.43-0.478-0.765-0.86-1.004-0.373-0.248-0.841-0.373-1.405-0.373-0.593 0-1.085 0.139-1.477 0.416s-0.688 0.645-0.889 1.104c-0.191 0.459-0.287 0.98-0.287 1.563 0 0.573 0.096 1.099 0.287 1.577 0.201 0.468 0.502 0.841 0.903 1.118 0.411 0.277 0.927 0.416 1.548 0.416 0.659 0 1.195-0.148 1.606-0.444 0.411-0.306 0.664-0.664 0.76-1.075h1.004c-0.096 0.507-0.296 0.946-0.602 1.319-0.306 0.363-0.693 0.645-1.161 0.846s-1.004 0.301-1.606 0.301z"></path>
<path d="M85.947 14.603c-0.554 0-1.061-0.1-1.52-0.301-0.449-0.21-0.841-0.497-1.176-0.86-0.325-0.373-0.578-0.793-0.76-1.262-0.172-0.478-0.258-0.984-0.258-1.52v-0.201c0-0.516 0.086-1.008 0.258-1.477 0.172-0.478 0.416-0.898 0.731-1.262 0.325-0.373 0.712-0.664 1.161-0.875 0.459-0.22 0.97-0.33 1.534-0.33 0.64 0 1.204 0.139 1.692 0.416s0.879 0.679 1.176 1.204c0.296 0.516 0.454 1.152 0.473 1.907l-0.473-0.889v-5.261h1.075v10.465h-0.86v-3.369h0.344c-0.019 0.793-0.186 1.462-0.502 2.007-0.306 0.535-0.712 0.937-1.219 1.204-0.497 0.268-1.056 0.401-1.677 0.401zM86.090 13.656c0.516 0 0.98-0.115 1.391-0.344 0.421-0.229 0.75-0.554 0.989-0.975 0.239-0.43 0.358-0.922 0.358-1.477v-0.688c0-0.535-0.119-1.004-0.358-1.405-0.239-0.411-0.569-0.731-0.989-0.96-0.411-0.229-0.879-0.344-1.405-0.344-0.564 0-1.056 0.139-1.477 0.416-0.411 0.268-0.731 0.636-0.96 1.104-0.22 0.468-0.33 0.994-0.33 1.577 0 0.602 0.115 1.137 0.344 1.606s0.554 0.836 0.975 1.104c0.42 0.258 0.908 0.387 1.462 0.387z"></path>
<path d="M79.433 14.359v-2.28h-0.172v-2.695c0-0.564-0.148-0.994-0.444-1.29-0.296-0.306-0.755-0.459-1.376-0.459-0.287 0-0.578 0.005-0.874 0.014-0.287 0.010-0.564 0.024-0.832 0.043-0.258 0.010-0.487 0.024-0.688 0.043v-0.946c0.21-0.019 0.425-0.038 0.645-0.057s0.444-0.029 0.674-0.029c0.239-0.010 0.468-0.014 0.688-0.014 0.774 0 1.395 0.096 1.864 0.287 0.478 0.191 0.827 0.492 1.047 0.903 0.22 0.401 0.33 0.937 0.33 1.606v4.874h-0.86zM76.867 14.56c-0.535 0-1.008-0.096-1.419-0.287s-0.731-0.468-0.96-0.832c-0.22-0.363-0.33-0.803-0.33-1.319 0-0.507 0.115-0.937 0.344-1.29 0.239-0.354 0.578-0.621 1.018-0.803 0.449-0.191 0.989-0.287 1.62-0.287h2.222v0.817h-2.294c-0.602 0-1.066 0.148-1.391 0.444-0.315 0.287-0.473 0.664-0.473 1.133 0 0.478 0.167 0.86 0.502 1.147 0.335 0.277 0.788 0.416 1.362 0.416 0.354 0 0.693-0.062 1.018-0.186 0.325-0.134 0.597-0.354 0.817-0.659 0.22-0.315 0.339-0.746 0.358-1.29l0.315 0.444c-0.038 0.564-0.172 1.037-0.401 1.419-0.229 0.373-0.54 0.655-0.932 0.846s-0.851 0.287-1.376 0.287z"></path>
<path d="M61.171 14.359v-7.598h0.86v3.197h-0.172c0-0.698 0.096-1.3 0.287-1.806 0.201-0.507 0.497-0.898 0.889-1.176 0.392-0.287 0.889-0.43 1.491-0.43h0.043c0.602 0 1.099 0.139 1.491 0.416s0.683 0.669 0.874 1.176c0.191 0.507 0.287 1.113 0.287 1.821h-0.344c0-0.698 0.096-1.3 0.287-1.806 0.201-0.507 0.497-0.898 0.889-1.176 0.401-0.287 0.903-0.43 1.505-0.43h0.043c0.602 0 1.099 0.139 1.491 0.416 0.401 0.277 0.698 0.669 0.889 1.176 0.201 0.507 0.301 1.113 0.301 1.821v4.401h-1.075v-4.645c0-0.669-0.162-1.199-0.487-1.591s-0.793-0.588-1.405-0.588c-0.631 0-1.133 0.205-1.505 0.616-0.363 0.401-0.545 0.946-0.545 1.634v4.573h-1.075v-4.645c0-0.669-0.162-1.199-0.487-1.591s-0.793-0.588-1.405-0.588c-0.631 0-1.133 0.205-1.505 0.616-0.363 0.401-0.545 0.946-0.545 1.634v4.573h-1.075z"></path>
<path d="M54.626 14.603c-0.554 0-1.061-0.1-1.52-0.301-0.449-0.21-0.841-0.497-1.176-0.86-0.325-0.373-0.578-0.793-0.76-1.262-0.172-0.478-0.258-0.984-0.258-1.52v-0.201c0-0.516 0.086-1.008 0.258-1.477 0.172-0.478 0.416-0.898 0.731-1.262 0.325-0.373 0.712-0.664 1.161-0.875 0.459-0.22 0.97-0.33 1.534-0.33 0.64 0 1.204 0.139 1.692 0.416s0.879 0.679 1.176 1.204c0.296 0.516 0.454 1.152 0.473 1.907l-0.473-0.889v-5.261h1.075v10.465h-0.86v-3.369h0.344c-0.019 0.793-0.186 1.462-0.502 2.007-0.306 0.535-0.712 0.937-1.219 1.204-0.497 0.268-1.056 0.401-1.677 0.401zM54.769 13.656c0.516 0 0.98-0.115 1.391-0.344 0.42-0.229 0.75-0.554 0.989-0.975 0.239-0.43 0.358-0.922 0.358-1.477v-0.688c0-0.535-0.119-1.004-0.358-1.405-0.239-0.411-0.569-0.731-0.989-0.96-0.411-0.229-0.879-0.344-1.405-0.344-0.564 0-1.056 0.139-1.477 0.416-0.411 0.268-0.731 0.636-0.961 1.104-0.22 0.468-0.33 0.994-0.33 1.577 0 0.602 0.115 1.137 0.344 1.606s0.554 0.836 0.975 1.104c0.42 0.258 0.908 0.387 1.462 0.387z"></path>
<path d="M42.557 14.359v-7.584h0.86v3.183h-0.172c0-0.707 0.105-1.314 0.315-1.821s0.526-0.898 0.946-1.176c0.421-0.277 0.951-0.416 1.591-0.416h0.043c0.956 0 1.668 0.301 2.136 0.903 0.468 0.593 0.702 1.429 0.702 2.509v4.401h-1.061v-4.631c0-0.659-0.181-1.19-0.545-1.591s-0.87-0.602-1.52-0.602c-0.669 0-1.209 0.21-1.62 0.631-0.401 0.411-0.602 0.956-0.602 1.634v4.559h-1.075z"></path>
<path d="M39.154 14.359v-2.28h-0.172v-2.695c0-0.564-0.148-0.994-0.444-1.29-0.296-0.306-0.755-0.459-1.376-0.459-0.287 0-0.578 0.005-0.874 0.014-0.287 0.010-0.564 0.024-0.831 0.043-0.258 0.010-0.487 0.024-0.688 0.043v-0.946c0.21-0.019 0.425-0.038 0.645-0.057s0.444-0.029 0.674-0.029c0.239-0.010 0.468-0.014 0.688-0.014 0.774 0 1.395 0.096 1.864 0.287 0.478 0.191 0.827 0.492 1.047 0.903 0.22 0.401 0.33 0.937 0.33 1.606v4.874h-0.86zM36.588 14.56c-0.535 0-1.008-0.096-1.419-0.287s-0.731-0.468-0.961-0.832c-0.22-0.363-0.33-0.803-0.33-1.319 0-0.507 0.115-0.937 0.344-1.29 0.239-0.354 0.578-0.621 1.018-0.803 0.449-0.191 0.989-0.287 1.62-0.287h2.222v0.817h-2.294c-0.602 0-1.066 0.148-1.391 0.444-0.315 0.287-0.473 0.664-0.473 1.133 0 0.478 0.167 0.86 0.502 1.147 0.334 0.277 0.788 0.416 1.362 0.416 0.354 0 0.693-0.062 1.018-0.186 0.325-0.134 0.597-0.354 0.817-0.659 0.22-0.315 0.339-0.746 0.358-1.29l0.315 0.444c-0.038 0.564-0.172 1.037-0.401 1.419-0.229 0.373-0.54 0.655-0.932 0.846s-0.851 0.287-1.376 0.287z"></path>
<path d="M25.582 14.359v-10.465h1.075v5.921l-0.315 0.244c0-0.707 0.1-1.324 0.301-1.849 0.21-0.526 0.521-0.932 0.932-1.219 0.421-0.296 0.946-0.444 1.577-0.444h0.057c0.918 0 1.611 0.301 2.079 0.903 0.478 0.602 0.717 1.438 0.717 2.509v4.401h-1.061v-4.631c0-0.679-0.186-1.214-0.559-1.606s-0.875-0.588-1.505-0.588c-0.679 0-1.219 0.22-1.62 0.659-0.401 0.43-0.602 0.999-0.602 1.706v4.459h-1.075z"></path>
<path d="M40.509 25.735l1.504-6.816h1.398l1.744 6.816h-0.865l-1.744-6.776h0.319l-1.518 6.776h-0.839zM39.936 25.735v-0.812h1.211v0.812h-1.211zM39.697 25.735l-2.037-7.042h0.958l2.010 7.042h-0.932zM44.516 25.735v-0.812h1.185v0.812h-1.185zM45.035 25.735l1.757-7.042h0.919l-1.797 7.042h-0.879z"></path>
</symbol>
<symbol id="envelope" viewBox="0 0 32 32">
<path d="M26.667 5.333h-21.333c-1.471 0-2.667 1.196-2.667 2.667v16c0 1.471 1.196 2.667 2.667 2.667h21.333c1.471 0 2.667-1.196 2.667-2.667v-16c0-1.471-1.196-2.667-2.667-2.667zM26.667 8v0.681l-10.667 8.297-10.667-8.296v-0.683h21.333zM5.333 24v-11.941l9.848 7.66c0.233 0.183 0.522 0.283 0.819 0.283s0.585-0.1 0.819-0.283l9.848-7.66 0.003 11.941h-21.336z"></path>
</symbol>
<symbol id="facebook" viewBox="0 0 32 32">
<path d="M29.333 16.405c0-7.409-5.969-13.415-13.333-13.415s-13.333 6.006-13.333 13.415c0 6.696 4.876 12.245 11.25 13.252v-9.374h-3.385v-3.878h3.385v-2.955c0-3.362 1.991-5.219 5.036-5.219 1.459 0 2.985 0.262 2.985 0.262v3.301h-1.681c-1.656 0-2.173 1.034-2.173 2.095v2.516h3.698l-0.591 3.878h-3.107v9.374c6.374-1.006 11.25-6.556 11.25-13.252z"></path>
</symbol>
<symbol id="instagram" viewBox="0 0 32 32">
<path d="M15.998 6.161c3.206 0 3.585 0.014 4.846 0.071 1.172 0.052 1.804 0.248 2.226 0.412 0.558 0.216 0.961 0.478 1.378 0.895 0.422 0.422 0.679 0.82 0.9 1.378 0.164 0.422 0.361 1.059 0.412 2.226 0.056 1.266 0.071 1.645 0.071 4.847s-0.014 3.585-0.071 4.847c-0.052 1.172-0.248 1.804-0.412 2.227-0.216 0.558-0.478 0.961-0.895 1.377-0.422 0.422-0.82 0.679-1.378 0.9-0.422 0.164-1.060 0.361-2.226 0.412-1.266 0.056-1.645 0.071-4.847 0.071s-3.585-0.014-4.847-0.071c-1.172-0.052-1.804-0.248-2.226-0.412-0.558-0.216-0.961-0.478-1.378-0.895-0.422-0.422-0.679-0.82-0.9-1.378-0.164-0.422-0.361-1.060-0.412-2.226-0.056-1.266-0.071-1.645-0.071-4.847s0.014-3.585 0.071-4.847c0.052-1.172 0.248-1.804 0.412-2.226 0.216-0.558 0.478-0.961 0.895-1.378 0.422-0.422 0.82-0.679 1.378-0.9 0.422-0.164 1.059-0.361 2.226-0.412 1.261-0.056 1.641-0.071 4.847-0.071h0.001zM15.998 4.001c-3.258 0-3.665 0.014-4.945 0.071-1.275 0.056-2.151 0.262-2.91 0.558-0.792 0.309-1.462 0.717-2.127 1.387-0.67 0.666-1.078 1.336-1.387 2.123-0.295 0.764-0.502 1.636-0.558 2.91-0.056 1.285-0.071 1.692-0.071 4.949s0.014 3.665 0.071 4.945c0.056 1.275 0.262 2.151 0.558 2.91 0.31 0.792 0.717 1.462 1.387 2.127 0.665 0.665 1.336 1.078 2.123 1.383 0.764 0.295 1.636 0.502 2.91 0.558 1.279 0.056 1.687 0.071 4.945 0.071s3.666-0.014 4.945-0.071c1.275-0.056 2.151-0.262 2.91-0.558 0.787-0.305 1.458-0.717 2.123-1.383s1.078-1.336 1.383-2.123c0.295-0.764 0.502-1.635 0.558-2.91 0.056-1.279 0.071-1.687 0.071-4.945s-0.014-3.665-0.071-4.945c-0.056-1.275-0.262-2.151-0.558-2.91-0.295-0.797-0.703-1.467-1.373-2.133-0.665-0.665-1.336-1.078-2.123-1.383-0.764-0.295-1.635-0.502-2.91-0.558-1.284-0.061-1.692-0.075-4.949-0.075l-0.001 0.001z"></path>
<path d="M15.998 9.836c-3.402 0-6.163 2.76-6.163 6.163s2.76 6.163 6.163 6.163c3.403 0 6.163-2.76 6.163-6.163s-2.76-6.163-6.163-6.163zM15.998 19.997c-2.208 0-3.998-1.79-3.998-3.998s1.79-3.998 3.998-3.998c2.208 0 3.998 1.79 3.998 3.998s-1.79 3.998-3.998 3.998z"></path>
<path d="M23.843 9.592c0 0.795-0.644 1.439-1.439 1.439s-1.439-0.644-1.439-1.439 0.644-1.439 1.439-1.439c0.795 0 1.439 0.644 1.439 1.439z"></path>
</symbol>
<symbol id="linkedin" viewBox="0 0 32 32">
<path d="M25.75 4h-19.5c-1.237 0-2.25 1.013-2.25 2.25v19.5c0 1.237 1.013 2.25 2.25 2.25h19.5c1.237 0 2.25-1.013 2.25-2.25v-19.5c0-1.237-1.013-2.25-2.25-2.25zM13 23.5h-3v-10.5h3v10.5zM11.5 11.5c-0.829 0-1.5-0.671-1.5-1.5s0.671-1.5 1.5-1.5c0.829 0 1.5 0.671 1.5 1.5s-0.671 1.5-1.5 1.5zM23.5 23.5h-3v-6c0-0.829-0.671-1.5-1.5-1.5s-1.5 0.671-1.5 1.5v6h-3v-10.5h3v1.861c0.619-0.848 1.565-1.861 2.625-1.861 1.866 0 3.375 1.679 3.375 3.75v6.75z"></path>
</symbol>
<symbol id="map" viewBox="0 0 32 32">
<path d="M16 18.666c2.941 0 5.333-2.392 5.333-5.333s-2.392-5.333-5.333-5.333c-2.941 0-5.333 2.392-5.333 5.333s2.392 5.333 5.333 5.333zM16 10.666c1.471 0 2.667 1.196 2.667 2.667s-1.196 2.667-2.667 2.667c-1.471 0-2.667-1.196-2.667-2.667s1.196-2.667 2.667-2.667z"></path>
<path d="M15.227 29.085c0.226 0.161 0.496 0.248 0.773 0.248s0.548-0.087 0.773-0.248c0.405-0.287 9.932-7.165 9.893-15.752 0-5.881-4.785-10.667-10.667-10.667s-10.667 4.785-10.667 10.66c-0.039 8.593 9.488 15.472 9.893 15.759zM16 5.333c4.412 0 8 3.588 8 8.007 0.028 5.917-5.851 11.231-8 12.973-2.148-1.744-8.028-7.059-8-12.98 0-4.412 3.588-8 8-8z"></path>
</symbol>
<symbol id="menu" viewBox="0 0 32 32">
<path d="M5.333 8h21.333v2.667h-21.333v-2.667zM5.333 14.667h21.333v2.667h-21.333v-2.667zM5.333 21.333h21.333v2.667h-21.333v-2.667z"></path>
</symbol>
<symbol id="phone" viewBox="0 0 32 32">
<path d="M23.61 16.391c-0.124-0.124-0.271-0.222-0.433-0.289s-0.335-0.102-0.51-0.102-0.349 0.035-0.51 0.102c-0.162 0.067-0.309 0.165-0.432 0.289l-2.125 2.125c-0.985-0.293-2.824-0.96-3.989-2.125s-1.832-3.004-2.125-3.989l2.125-2.125c0.124-0.124 0.222-0.271 0.289-0.432s0.102-0.335 0.102-0.51-0.034-0.348-0.102-0.51c-0.067-0.162-0.165-0.309-0.289-0.432l-5.333-5.333c-0.124-0.124-0.271-0.222-0.432-0.289s-0.335-0.102-0.51-0.102-0.348 0.035-0.51 0.102c-0.162 0.067-0.309 0.165-0.432 0.289l-3.616 3.616c-0.507 0.507-0.792 1.203-0.781 1.913 0.031 1.899 0.533 8.493 5.731 13.691s11.792 5.699 13.692 5.731h0.037c0.704 0 1.369-0.277 1.873-0.781l3.616-3.616c0.124-0.124 0.222-0.271 0.289-0.432s0.102-0.335 0.102-0.51-0.035-0.349-0.102-0.51c-0.067-0.162-0.165-0.309-0.289-0.432l-5.333-5.335zM23.44 25.34c-1.664-0.028-7.357-0.475-11.831-4.949-4.488-4.488-4.923-10.201-4.949-11.832l2.673-2.673 3.448 3.448-1.724 1.724c-0.157 0.157-0.272 0.35-0.335 0.562s-0.073 0.437-0.027 0.654c0.032 0.153 0.815 3.789 3.028 6.003s5.849 2.996 6.003 3.028c0.217 0.047 0.442 0.038 0.654-0.025s0.406-0.179 0.562-0.336l1.725-1.724 3.448 3.448-2.675 2.673z"></path>
</symbol>
<symbol id="star-empty" viewBox="0 0 32 32">
<path stroke-linejoin="miter" stroke-linecap="butt" stroke-miterlimit="4" stroke-width="2.6667" d="M16 1.333c0.050 0 0.095 0.014 0.131 0.038 0.031 0.020 0.078 0.062 0.116 0.159l3.246 8.164c0.41 1.030 1.355 1.772 2.486 1.867l8.426 0.707c0.066 0.005 0.104 0.026 0.135 0.053 0.038 0.033 0.080 0.090 0.105 0.172 0.052 0.168 0.008 0.314-0.1 0.411l-6.419 5.751c-0.829 0.743-1.174 1.887-0.93 2.96l1.962 8.6c0.043 0.187-0.028 0.32-0.128 0.396-0.051 0.039-0.098 0.052-0.13 0.055-0.024 0.002-0.065-0.001-0.13-0.043l-7.213-4.608c-0.953-0.609-2.162-0.609-3.115 0l-7.213 4.608c-0.066 0.042-0.106 0.045-0.13 0.043-0.032-0.002-0.079-0.016-0.13-0.055-0.1-0.076-0.17-0.209-0.128-0.396l1.962-8.6c0.245-1.073-0.1-2.216-0.93-2.96l-6.419-5.751c-0.108-0.097-0.152-0.244-0.1-0.411 0.025-0.082 0.068-0.139 0.105-0.172 0.031-0.027 0.070-0.048 0.135-0.053l8.426-0.707c1.13-0.095 2.076-0.837 2.486-1.867l3.246-8.164c0.038-0.096 0.085-0.139 0.116-0.159 0.036-0.024 0.081-0.038 0.131-0.038z"></path>
</symbol>
<symbol id="star-filled" viewBox="0 0 32 32">
<path d="M14.513 1.037c0.55-1.383 2.423-1.383 2.973 0l3.246 8.164c0.232 0.583 0.756 0.982 1.358 1.032l8.426 0.707c1.427 0.12 2.006 1.983 0.919 2.958l-6.419 5.752c-0.459 0.411-0.659 1.056-0.519 1.67l1.961 8.6c0.332 1.457-1.183 2.609-2.405 1.828l-7.213-4.609c-0.515-0.329-1.163-0.329-1.679 0l-7.214 4.609c-1.222 0.781-2.738-0.371-2.405-1.828l1.961-8.6c0.14-0.614-0.060-1.259-0.519-1.67l-6.42-5.752c-1.088-0.975-0.509-2.838 0.919-2.958l8.426-0.707c0.602-0.050 1.126-0.449 1.358-1.032l3.246-8.164z"></path>
</symbol>
<symbol id="close" viewBox="0 0 32 32">
<path d="M21.589 8.459l-5.657 5.656-5.656-5.656-1.885 1.885 5.656 5.656-5.656 5.656 1.885 1.885 5.656-5.656 5.657 5.656 1.885-1.885-5.656-5.656 5.656-5.656-1.885-1.885z"></path>
</symbol>
<symbol id="twitter" viewBox="0 0 32 32">
<path d="M22.901 5.657h3.68l-8.040 9.037 9.459 12.297h-7.406l-5.801-7.458-6.637 7.458h-3.682l8.6-9.666-9.074-11.668h7.594l5.243 6.817 6.064-6.817zM21.61 24.824h2.039l-13.163-17.115h-2.188l13.312 17.115z"></path>
</symbol>
<symbol id="youtube" viewBox="0 0 32 32">
<path d="M28.791 9.604c-0.152-0.563-0.449-1.077-0.861-1.49s-0.925-0.711-1.489-0.864c-2.088-0.573-10.441-0.583-10.441-0.583s-8.352-0.009-10.441 0.539c-0.563 0.16-1.075 0.462-1.487 0.878s-0.711 0.929-0.867 1.493c-0.551 2.088-0.556 6.419-0.556 6.419s-0.005 4.352 0.541 6.419c0.307 1.143 1.207 2.045 2.351 2.353 2.109 0.573 10.44 0.583 10.44 0.583s8.353 0.009 10.441-0.537c0.563-0.153 1.077-0.45 1.49-0.862s0.712-0.925 0.866-1.488c0.552-2.087 0.556-6.416 0.556-6.416s0.027-4.353-0.543-6.441zM13.328 20.007l0.007-8 6.943 4.007-6.949 3.993z"></path>
</symbol>
</defs>
</svg>
