<svg aria-hidden="true" style="position: absolute; width: 0; height: 0; overflow: hidden;" version="1.1"
    xmlns="http://www.w3.org/2000/svg" xmlns:xlink="http://www.w3.org/1999/xlink">
    <defs>
        <symbol id="company-logo" viewBox="0 0 32 32">
            <path
                d="M7.046 13.444l0.005 0.004 0.28 0.233 0 4.319c-0.99 0.817-1.986 1.627-2.988 2.43-0.064-0.006-1.714-1.364-2.553-2.053l-0.023-0.019c-0.215-0.177-0.373-0.307-0.431-0.354l-0.003-4.32 2.985-2.446c0.097 0.014 1.961 1.567 2.728 2.206zM5.757 14.327l-0.003-0.005-0-0.001-0.005-0.008c-0.491-0.794-1.35-2.184-1.423-2.237l-1.732 2.76 0.004 1.916 0.348 0.572c0.152 0.022 0.306 0.047 0.461 0.072 0.313 0.051 0.628 0.102 0.939 0.127l0.415-0.062c0.32-0.048 0.64-0.097 0.961-0.14l0.349-0.543-0-1.947c-0.042-0.065-0.158-0.254-0.312-0.504zM6.199 15.062c-0.012 0.353-0.009 0.709-0.006 1.063 0.001 0.144 0.002 0.288 0.003 0.432l0.184-0.299c0.053-0.085 0.106-0.17 0.159-0.255l0.060-0.098 0.058-0.095c-0.014-0.024-0.029-0.049-0.043-0.074-0.029-0.050-0.058-0.102-0.087-0.154-0.101-0.181-0.206-0.368-0.328-0.52zM4.817 11.778c-0.143-0.126-0.319-0.28-0.424-0.325l0.003 0.142c0.003 0.111 0.005 0.223 0.006 0.334 0.55 0.888 1.105 1.773 1.664 2.655-0-0.027-0.001-0.070-0.003-0.122v-0.009c-0.007-0.249-0.019-0.701 0.045-0.767 0.002-0.002 0.003-0.004 0.005-0.005l0.005-0.004 0.005-0.004 0.056 0.024c0.043 0.196 0.033 0.503 0.024 0.776l-0 0.004-0 0.017c-0.004 0.114-0.007 0.221-0.006 0.311 0.074 0.123 0.149 0.245 0.224 0.368 0.131 0.213 0.262 0.425 0.384 0.643l-0.608 0.976 0.002 0.625v0.482l1.008 0.001-0.002-4.156c-0.739-0.621-1.485-1.234-2.238-1.838l-0.023-0.019-0.021-0.018c-0.031-0.027-0.067-0.058-0.104-0.091zM4.247 11.46c-0.315 0.259-0.633 0.516-0.951 0.772-0.617 0.498-1.234 0.996-1.833 1.512l-0.004 4.152 1.005 0.001 0.002-0.555 0.002-0.561-0.598-0.981c0.196-0.333 0.395-0.664 0.597-0.994-0-0.017-0.001-0.041-0.001-0.069l-0.003-0.095c-0.009-0.308-0.026-0.874 0.033-0.965l0.039-0.007c0.037 0.028 0.051 0.045 0.058 0.093 0.023 0.171 0.013 0.388 0.005 0.591l-0.003 0.081-0.002 0.042c-0.002 0.045-0.003 0.089-0.003 0.131l1.681-2.683c0-0.034 0.003-0.074 0.005-0.117 0.007-0.116 0.015-0.249-0.014-0.336l-0.014-0.012zM3.602 17.549c-0.189-0.034-0.378-0.067-0.566-0.083l0.145 0.233c0.387 0.622 0.776 1.245 1.146 1.876 0.188-0.303 0.374-0.607 0.558-0.912 0.083-0.134 0.166-0.269 0.248-0.404 0.163-0.267 0.327-0.534 0.496-0.797-0.105 0.015-0.23 0.037-0.364 0.059-0.331 0.057-0.711 0.123-0.96 0.116-0.234-0.006-0.469-0.048-0.704-0.090zM2.59 17.399c0 0.208 0.004 0.416-0.001 0.623-0.101 0-0.203 0-0.304 0.001-0.24 0.001-0.481 0.001-0.721-0.002l2.709 2.211c-0.002-0.1-0.004-0.199-0.005-0.299-0.001-0.070-0.001-0.139-0.001-0.209-0.263-0.447-0.535-0.888-0.807-1.329l-0.005-0.008-0.001-0.001c-0.194-0.314-0.388-0.629-0.579-0.945l-0.285-0.041zM5.999 17.409l-0.011 0.001-0.197 0.030-1.393 2.267-0.005 0.523c0.090-0.073 0.18-0.146 0.27-0.219 0.113-0.091 0.226-0.182 0.339-0.272 0.705-0.566 1.404-1.138 2.098-1.718l-1.029 0.001c0.001-0.046 0.003-0.094 0.005-0.143l0-0.004c0.006-0.152 0.013-0.312-0.017-0.45-0.027-0.020-0.030-0.020-0.051-0.017l-0.008 0.001zM2.469 16.495c0.001-0.040 0.002-0.094 0.003-0.159 0.008-0.4 0.022-1.183-0.027-1.259-0.024 0.041-0.048 0.081-0.072 0.122l-0.073 0.122c-0.095 0.159-0.191 0.319-0.278 0.482 0.031 0.051 0.062 0.101 0.093 0.152 0.070 0.113 0.141 0.227 0.204 0.344l0.149 0.243 0-0.047zM5.934 17.271c0.058-0.007 0.088-0.017 0.162-0.044 0.013-0.061 0.019-0.163 0.014-0.238-0.059 0.073-0.105 0.154-0.15 0.236l-0.026 0.046zM2.598 17.015c-0.005 0.075 0 0.151 0.014 0.238 0.090 0.029 0.107 0.036 0.124 0.039 0.009 0.002 0.018 0.002 0.038 0.005-0.055-0.096-0.106-0.196-0.176-0.282z">
            </path>
            <path
                d="M5.757 14.327c-0.061-0.099-0.128-0.207-0.199-0.322 0.069 0.112 0.135 0.219 0.196 0.316l0.003 0.005z">
            </path>
            <path d="M6.066 14.584c-0-0.028-0.001-0.072-0.003-0.127v0.003c0.001 0.053 0.003 0.097 0.003 0.124z"></path>
            <path
                d="M2.594 14.447c-0.002 0.056-0.004 0.11-0.004 0.161 0-0.041 0.002-0.085 0.003-0.131 0-0.010 0.001-0.020 0.001-0.030zM2.468 14.807c-0-0.035-0.002-0.092-0.004-0.164l0.003 0.095c0.001 0.028 0.001 0.051 0.001 0.069z">
            </path>
            <path d="M6.071 17.993c0.001-0.038 0.003-0.078 0.004-0.118l-0 0.004c-0.002 0.039-0.003 0.076-0.004 0.113z">
            </path>
            <path
                d="M2.444 15.078c-0.028 0.049-0.057 0.098-0.086 0.147l0.015-0.025c0.024-0.040 0.048-0.081 0.072-0.122zM2.468 16.542c0-0.049 0.002-0.159 0.005-0.298-0.001 0.033-0.001 0.064-0.002 0.093-0.002 0.095-0.003 0.168-0.003 0.205z">
            </path>
            <path
                d="M21.227 19.803v-0.286h0.29c0.1 0 0.185-0.013 0.256-0.038 0.071-0.023 0.131-0.064 0.179-0.124s0.090-0.142 0.124-0.247l0.759-2.441h0.311l-0.794 2.53c-0.046 0.145-0.108 0.262-0.188 0.35-0.080 0.091-0.175 0.156-0.286 0.196s-0.238 0.060-0.38 0.060h-0.273zM21.961 18.869v-0.269h0.405v0.269h-0.405zM21.922 18.869l-0.819-2.202h0.328l0.789 2.202h-0.299z">
            </path>
            <path
                d="M19.674 18.924v-2.257h0.256v0.943h-0.026c0-0.33 0.073-0.573 0.218-0.73 0.145-0.159 0.373-0.239 0.683-0.239h0.073v0.29h-0.132c-0.245 0-0.431 0.064-0.559 0.192-0.128 0.125-0.192 0.31-0.192 0.555v1.246h-0.32z">
            </path>
            <path d="M18.567 18.924v-3.115h0.32v3.115h-0.32zM18.239 16.070v-0.26h0.649v0.26h-0.649z"></path>
            <path
                d="M16.932 18.997c-0.193 0-0.361-0.033-0.503-0.098-0.142-0.068-0.259-0.158-0.35-0.269-0.091-0.114-0.159-0.24-0.205-0.38-0.043-0.139-0.064-0.283-0.064-0.431v-0.060c0-0.145 0.021-0.287 0.064-0.427 0.046-0.139 0.114-0.265 0.205-0.375s0.205-0.199 0.341-0.265c0.139-0.068 0.302-0.102 0.486-0.102 0.236 0 0.432 0.053 0.589 0.158 0.159 0.105 0.279 0.24 0.358 0.405 0.080 0.162 0.119 0.337 0.119 0.525v0.166h-2.018v-0.247h1.796l-0.081 0.124c0-0.168-0.030-0.314-0.090-0.439-0.057-0.128-0.142-0.228-0.256-0.299-0.111-0.074-0.25-0.111-0.418-0.111-0.176 0-0.323 0.041-0.439 0.124s-0.205 0.192-0.265 0.328c-0.057 0.137-0.085 0.292-0.085 0.465 0 0.171 0.028 0.327 0.085 0.469 0.060 0.139 0.149 0.25 0.269 0.333 0.122 0.082 0.276 0.124 0.461 0.124 0.196 0 0.356-0.044 0.478-0.132 0.122-0.091 0.198-0.198 0.226-0.32h0.299c-0.028 0.151-0.088 0.282-0.179 0.392-0.091 0.108-0.206 0.192-0.346 0.252s-0.299 0.090-0.478 0.090z">
            </path>
            <path
                d="M11.118 19.179c-0.193 0-0.361-0.033-0.503-0.098-0.142-0.068-0.259-0.158-0.35-0.269-0.091-0.114-0.159-0.24-0.205-0.38-0.043-0.139-0.064-0.283-0.064-0.431v-0.060c0-0.145 0.021-0.287 0.064-0.427 0.046-0.139 0.114-0.265 0.205-0.375s0.205-0.199 0.341-0.265c0.139-0.068 0.302-0.102 0.486-0.102 0.236 0 0.432 0.053 0.589 0.158 0.159 0.105 0.279 0.24 0.358 0.405 0.080 0.162 0.12 0.337 0.12 0.525v0.166h-2.018v-0.247h1.796l-0.081 0.124c0-0.168-0.030-0.314-0.090-0.439-0.057-0.128-0.142-0.228-0.256-0.299-0.111-0.074-0.25-0.111-0.418-0.111-0.176 0-0.323 0.041-0.439 0.124s-0.205 0.192-0.265 0.329c-0.057 0.137-0.085 0.292-0.085 0.465 0 0.171 0.028 0.327 0.085 0.469 0.060 0.139 0.149 0.25 0.269 0.333 0.122 0.082 0.276 0.124 0.461 0.124 0.196 0 0.356-0.044 0.478-0.132 0.122-0.091 0.198-0.198 0.226-0.32h0.299c-0.028 0.151-0.088 0.282-0.179 0.393-0.091 0.108-0.206 0.192-0.346 0.252s-0.299 0.090-0.478 0.090z">
            </path>
            <path
                d="M8.482 19.973v-0.286h0.256c0.111 0 0.195-0.033 0.252-0.098 0.060-0.063 0.090-0.154 0.090-0.273v-2.466h0.307v2.406c0 0.176-0.024 0.317-0.072 0.422-0.046 0.105-0.12 0.181-0.222 0.226s-0.239 0.068-0.41 0.068h-0.2zM8.713 17.106v-0.256h0.674v0.256h-0.674zM9.139 16.393c-0.077 0-0.135-0.020-0.175-0.060-0.037-0.043-0.055-0.095-0.055-0.158s0.018-0.114 0.055-0.154c0.040-0.043 0.098-0.064 0.175-0.064s0.134 0.021 0.171 0.064c0.037 0.040 0.056 0.091 0.056 0.154s-0.018 0.115-0.056 0.158c-0.037 0.040-0.094 0.060-0.171 0.060z">
            </path>
            <path
                d="M29.766 15.544c-0.193 0-0.361-0.033-0.503-0.098-0.142-0.068-0.259-0.158-0.35-0.269-0.091-0.114-0.159-0.24-0.205-0.38-0.043-0.139-0.064-0.283-0.064-0.431v-0.060c0-0.145 0.021-0.287 0.064-0.427 0.045-0.139 0.114-0.265 0.205-0.376s0.205-0.199 0.341-0.264c0.139-0.068 0.302-0.102 0.487-0.102 0.236 0 0.432 0.053 0.589 0.158 0.159 0.105 0.279 0.24 0.358 0.405 0.080 0.162 0.119 0.337 0.119 0.525v0.166h-2.018v-0.248h1.796l-0.081 0.124c0-0.168-0.030-0.314-0.090-0.439-0.057-0.128-0.142-0.228-0.256-0.299-0.111-0.074-0.25-0.111-0.418-0.111-0.176 0-0.323 0.041-0.439 0.124s-0.205 0.192-0.265 0.329c-0.057 0.137-0.085 0.292-0.085 0.465 0 0.171 0.029 0.327 0.085 0.469 0.060 0.139 0.149 0.25 0.269 0.333 0.122 0.082 0.276 0.124 0.461 0.124 0.196 0 0.356-0.044 0.478-0.132 0.122-0.091 0.198-0.198 0.226-0.32h0.299c-0.029 0.151-0.088 0.282-0.179 0.393-0.091 0.108-0.206 0.192-0.346 0.252s-0.299 0.090-0.478 0.090z">
            </path>
            <path
                d="M26.875 15.544c-0.165 0-0.316-0.030-0.452-0.090-0.134-0.063-0.25-0.148-0.35-0.256-0.097-0.111-0.172-0.236-0.226-0.376-0.051-0.142-0.077-0.293-0.077-0.452v-0.060c0-0.154 0.026-0.3 0.077-0.439 0.051-0.142 0.124-0.267 0.218-0.375 0.097-0.111 0.212-0.198 0.346-0.26 0.137-0.065 0.289-0.098 0.457-0.098 0.191 0 0.358 0.041 0.503 0.124s0.262 0.202 0.35 0.358c0.088 0.154 0.135 0.343 0.141 0.568l-0.141-0.265v-1.566h0.32v3.115h-0.256v-1.003h0.102c-0.006 0.236-0.055 0.435-0.149 0.597-0.091 0.159-0.212 0.279-0.363 0.358-0.148 0.080-0.314 0.12-0.499 0.12zM26.918 15.262c0.154 0 0.292-0.034 0.414-0.102 0.125-0.068 0.223-0.165 0.294-0.29 0.071-0.128 0.107-0.274 0.107-0.439v-0.205c0-0.159-0.036-0.299-0.107-0.418-0.071-0.122-0.169-0.218-0.294-0.286-0.122-0.068-0.262-0.102-0.418-0.102-0.168 0-0.314 0.041-0.439 0.124-0.122 0.080-0.218 0.189-0.286 0.329-0.065 0.139-0.098 0.296-0.098 0.469 0 0.179 0.034 0.338 0.102 0.478s0.165 0.249 0.29 0.329c0.125 0.077 0.27 0.115 0.435 0.115z">
            </path>
            <path
                d="M24.936 15.472v-0.678h-0.051v-0.802c0-0.168-0.044-0.296-0.132-0.384-0.088-0.091-0.225-0.136-0.41-0.136-0.085 0-0.172 0.001-0.26 0.004-0.085 0.003-0.168 0.007-0.247 0.013-0.077 0.003-0.145 0.007-0.205 0.013v-0.282c0.063-0.006 0.127-0.011 0.192-0.017s0.132-0.009 0.201-0.009c0.071-0.003 0.139-0.004 0.205-0.004 0.23 0 0.415 0.028 0.555 0.085 0.142 0.057 0.246 0.146 0.311 0.269 0.065 0.12 0.098 0.279 0.098 0.478v1.451h-0.256zM24.172 15.531c-0.159 0-0.3-0.028-0.422-0.085s-0.218-0.139-0.286-0.247c-0.065-0.108-0.098-0.239-0.098-0.393 0-0.151 0.034-0.279 0.102-0.384 0.071-0.105 0.172-0.185 0.303-0.239 0.134-0.057 0.294-0.085 0.482-0.085h0.661v0.243h-0.683c-0.179 0-0.317 0.044-0.414 0.132-0.094 0.085-0.141 0.198-0.141 0.337 0 0.142 0.050 0.256 0.149 0.341 0.1 0.082 0.235 0.124 0.405 0.124 0.105 0 0.206-0.018 0.303-0.056 0.097-0.040 0.178-0.105 0.243-0.196 0.065-0.094 0.101-0.222 0.107-0.384l0.094 0.132c-0.011 0.168-0.051 0.309-0.119 0.422-0.068 0.111-0.161 0.195-0.277 0.252s-0.253 0.085-0.41 0.085z">
            </path>
            <path
                d="M19.501 15.472v-2.261h0.256v0.951h-0.051c0-0.208 0.028-0.387 0.085-0.538 0.060-0.151 0.148-0.267 0.265-0.35 0.117-0.085 0.265-0.128 0.444-0.128h0.013c0.179 0 0.327 0.041 0.444 0.124s0.203 0.199 0.26 0.35c0.057 0.151 0.085 0.331 0.085 0.542h-0.102c0-0.208 0.028-0.387 0.085-0.538 0.060-0.151 0.148-0.267 0.265-0.35 0.119-0.085 0.269-0.128 0.448-0.128h0.013c0.179 0 0.327 0.041 0.444 0.124 0.119 0.082 0.208 0.199 0.265 0.35 0.060 0.151 0.090 0.331 0.090 0.542v1.31h-0.32v-1.382c0-0.199-0.048-0.357-0.145-0.474s-0.236-0.175-0.418-0.175c-0.188 0-0.337 0.061-0.448 0.183-0.108 0.119-0.162 0.282-0.162 0.486v1.361h-0.32v-1.382c0-0.199-0.048-0.357-0.145-0.474s-0.236-0.175-0.418-0.175c-0.188 0-0.337 0.061-0.448 0.183-0.108 0.119-0.162 0.282-0.162 0.486v1.361h-0.32z">
            </path>
            <path
                d="M17.553 15.544c-0.165 0-0.316-0.030-0.452-0.090-0.134-0.063-0.25-0.148-0.35-0.256-0.097-0.111-0.172-0.236-0.226-0.376-0.051-0.142-0.077-0.293-0.077-0.452v-0.060c0-0.154 0.026-0.3 0.077-0.439 0.051-0.142 0.124-0.267 0.218-0.375 0.097-0.111 0.212-0.198 0.346-0.26 0.137-0.065 0.289-0.098 0.457-0.098 0.191 0 0.358 0.041 0.503 0.124s0.262 0.202 0.35 0.358c0.088 0.154 0.135 0.343 0.141 0.568l-0.141-0.265v-1.566h0.32v3.115h-0.256v-1.003h0.102c-0.006 0.236-0.055 0.435-0.149 0.597-0.091 0.159-0.212 0.279-0.363 0.358-0.148 0.080-0.314 0.12-0.499 0.12zM17.596 15.262c0.154 0 0.292-0.034 0.414-0.102 0.125-0.068 0.223-0.165 0.294-0.29 0.071-0.128 0.107-0.274 0.107-0.439v-0.205c0-0.159-0.036-0.299-0.107-0.418-0.071-0.122-0.169-0.218-0.294-0.286-0.122-0.068-0.262-0.102-0.418-0.102-0.168 0-0.314 0.041-0.439 0.124-0.122 0.080-0.218 0.189-0.286 0.329-0.065 0.139-0.098 0.296-0.098 0.469 0 0.179 0.034 0.338 0.102 0.478s0.165 0.249 0.29 0.329c0.125 0.077 0.27 0.115 0.435 0.115z">
            </path>
            <path
                d="M13.961 15.472v-2.257h0.256v0.947h-0.051c0-0.21 0.031-0.391 0.094-0.542s0.156-0.267 0.282-0.35c0.125-0.082 0.283-0.124 0.474-0.124h0.013c0.284 0 0.496 0.090 0.636 0.269 0.139 0.176 0.209 0.425 0.209 0.747v1.31h-0.316v-1.378c0-0.196-0.054-0.354-0.162-0.474s-0.259-0.179-0.452-0.179c-0.199 0-0.36 0.063-0.482 0.188-0.12 0.122-0.179 0.284-0.179 0.486v1.357h-0.32z">
            </path>
            <path
                d="M12.948 15.472v-0.678h-0.051v-0.802c0-0.168-0.044-0.296-0.132-0.384-0.088-0.091-0.225-0.136-0.41-0.136-0.085 0-0.172 0.001-0.26 0.004-0.085 0.003-0.168 0.007-0.247 0.013-0.077 0.003-0.145 0.007-0.205 0.013v-0.282c0.063-0.006 0.127-0.011 0.192-0.017s0.132-0.009 0.201-0.009c0.071-0.003 0.139-0.004 0.205-0.004 0.23 0 0.415 0.028 0.555 0.085 0.142 0.057 0.246 0.146 0.311 0.269 0.065 0.12 0.098 0.279 0.098 0.478v1.451h-0.256zM12.185 15.531c-0.159 0-0.3-0.028-0.422-0.085s-0.218-0.139-0.286-0.247c-0.065-0.108-0.098-0.239-0.098-0.393 0-0.151 0.034-0.279 0.102-0.384 0.071-0.105 0.172-0.185 0.303-0.239 0.134-0.057 0.294-0.085 0.482-0.085h0.661v0.243h-0.683c-0.179 0-0.317 0.044-0.414 0.132-0.094 0.085-0.141 0.198-0.141 0.337 0 0.142 0.050 0.256 0.149 0.341 0.1 0.082 0.235 0.124 0.405 0.124 0.105 0 0.206-0.018 0.303-0.056 0.097-0.040 0.178-0.105 0.243-0.196 0.065-0.094 0.101-0.222 0.107-0.384l0.094 0.132c-0.011 0.168-0.051 0.309-0.119 0.422-0.068 0.111-0.161 0.195-0.277 0.252s-0.253 0.085-0.41 0.085z">
            </path>
            <path
                d="M8.909 15.472v-3.115h0.32v1.762l-0.094 0.073c0-0.21 0.030-0.394 0.090-0.55 0.063-0.156 0.155-0.277 0.277-0.363 0.125-0.088 0.282-0.132 0.469-0.132h0.017c0.273 0 0.479 0.090 0.619 0.269 0.142 0.179 0.213 0.428 0.213 0.747v1.31h-0.316v-1.378c0-0.202-0.055-0.361-0.166-0.478s-0.26-0.175-0.448-0.175c-0.202 0-0.363 0.065-0.482 0.196-0.119 0.128-0.179 0.297-0.179 0.508v1.327h-0.32z">
            </path>
            <path
                d="M13.351 18.857l0.448-2.029h0.416l0.519 2.029h-0.258l-0.519-2.017h0.095l-0.452 2.017h-0.25zM13.181 18.857v-0.242h0.361v0.242h-0.361zM13.11 18.857l-0.606-2.096h0.285l0.598 2.096h-0.277zM14.544 18.857v-0.242h0.353v0.242h-0.353zM14.698 18.857l0.523-2.096h0.273l-0.535 2.096h-0.261z">
            </path>
        </symbol>
        <symbol id="envelope" viewBox="0 0 32 32">
            <path
                d="M26.667 5.333h-21.333c-1.471 0-2.667 1.196-2.667 2.667v16c0 1.471 1.196 2.667 2.667 2.667h21.333c1.471 0 2.667-1.196 2.667-2.667v-16c0-1.471-1.196-2.667-2.667-2.667zM26.667 8v0.681l-10.667 8.297-10.667-8.296v-0.683h21.333zM5.333 24v-11.941l9.848 7.66c0.233 0.183 0.522 0.283 0.819 0.283s0.585-0.1 0.819-0.283l9.848-7.66 0.003 11.941h-21.336z">
            </path>
        </symbol>
        <symbol id="facebook" viewBox="0 0 32 32">
            <path
                d="M29.333 16.405c0-7.409-5.969-13.415-13.333-13.415s-13.333 6.006-13.333 13.415c0 6.696 4.876 12.245 11.25 13.252v-9.374h-3.385v-3.878h3.385v-2.955c0-3.362 1.991-5.219 5.036-5.219 1.459 0 2.985 0.262 2.985 0.262v3.301h-1.681c-1.656 0-2.173 1.034-2.173 2.095v2.516h3.698l-0.591 3.878h-3.107v9.374c6.374-1.006 11.25-6.556 11.25-13.252z">
            </path>
        </symbol>
        <symbol id="instagram" viewBox="0 0 32 32">
            <path
                d="M15.998 6.161c3.206 0 3.585 0.014 4.846 0.071 1.172 0.052 1.804 0.248 2.226 0.412 0.558 0.216 0.961 0.478 1.378 0.895 0.422 0.422 0.679 0.82 0.9 1.378 0.164 0.422 0.361 1.059 0.412 2.226 0.056 1.266 0.071 1.645 0.071 4.847s-0.014 3.585-0.071 4.847c-0.052 1.172-0.248 1.804-0.412 2.227-0.216 0.558-0.478 0.961-0.895 1.377-0.422 0.422-0.82 0.679-1.378 0.9-0.422 0.164-1.060 0.361-2.226 0.412-1.266 0.056-1.645 0.071-4.847 0.071s-3.585-0.014-4.847-0.071c-1.172-0.052-1.804-0.248-2.226-0.412-0.558-0.216-0.961-0.478-1.378-0.895-0.422-0.422-0.679-0.82-0.9-1.378-0.164-0.422-0.361-1.060-0.412-2.226-0.056-1.266-0.071-1.645-0.071-4.847s0.014-3.585 0.071-4.847c0.052-1.172 0.248-1.804 0.412-2.226 0.216-0.558 0.478-0.961 0.895-1.378 0.422-0.422 0.82-0.679 1.378-0.9 0.422-0.164 1.059-0.361 2.226-0.412 1.261-0.056 1.641-0.071 4.847-0.071h0.001zM15.998 4.001c-3.258 0-3.665 0.014-4.945 0.071-1.275 0.056-2.151 0.262-2.91 0.558-0.792 0.309-1.462 0.717-2.127 1.387-0.67 0.666-1.078 1.336-1.387 2.123-0.295 0.764-0.502 1.636-0.558 2.91-0.056 1.285-0.071 1.692-0.071 4.949s0.014 3.665 0.071 4.945c0.056 1.275 0.262 2.151 0.558 2.91 0.31 0.792 0.717 1.462 1.387 2.127 0.665 0.665 1.336 1.078 2.123 1.383 0.764 0.295 1.636 0.502 2.91 0.558 1.279 0.056 1.687 0.071 4.945 0.071s3.666-0.014 4.945-0.071c1.275-0.056 2.151-0.262 2.91-0.558 0.787-0.305 1.458-0.717 2.123-1.383s1.078-1.336 1.383-2.123c0.295-0.764 0.502-1.635 0.558-2.91 0.056-1.279 0.071-1.687 0.071-4.945s-0.014-3.665-0.071-4.945c-0.056-1.275-0.262-2.151-0.558-2.91-0.295-0.797-0.703-1.467-1.373-2.133-0.665-0.665-1.336-1.078-2.123-1.383-0.764-0.295-1.635-0.502-2.91-0.558-1.284-0.061-1.692-0.075-4.949-0.075l-0.001 0.001z">
            </path>
            <path
                d="M15.998 9.836c-3.402 0-6.163 2.76-6.163 6.163s2.76 6.163 6.163 6.163c3.403 0 6.163-2.76 6.163-6.163s-2.76-6.163-6.163-6.163zM15.998 19.997c-2.208 0-3.998-1.79-3.998-3.998s1.79-3.998 3.998-3.998c2.208 0 3.998 1.79 3.998 3.998s-1.79 3.998-3.998 3.998z">
            </path>
            <path
                d="M23.843 9.592c0 0.795-0.644 1.439-1.439 1.439s-1.439-0.644-1.439-1.439 0.644-1.439 1.439-1.439c0.795 0 1.439 0.644 1.439 1.439z">
            </path>
        </symbol>

        <symbol id="linkedin" viewBox="0 0 32 32">
            <path
                d="M25.75 4h-19.5c-1.237 0-2.25 1.013-2.25 2.25v19.5c0 1.237 1.013 2.25 2.25 2.25h19.5c1.237 0 2.25-1.013 2.25-2.25v-19.5c0-1.237-1.013-2.25-2.25-2.25zM13 23.5h-3v-10.5h3v10.5zM11.5 11.5c-0.829 0-1.5-0.671-1.5-1.5s0.671-1.5 1.5-1.5c0.829 0 1.5 0.671 1.5 1.5s-0.671 1.5-1.5 1.5zM23.5 23.5h-3v-6c0-0.829-0.671-1.5-1.5-1.5s-1.5 0.671-1.5 1.5v6h-3v-10.5h3v1.861c0.619-0.848 1.565-1.861 2.625-1.861 1.866 0 3.375 1.679 3.375 3.75v6.75z">
            </path>
        </symbol>
        <symbol id="map" viewBox="0 0 32 32">
            <path
                d="M16 18.666c2.941 0 5.333-2.392 5.333-5.333s-2.392-5.333-5.333-5.333c-2.941 0-5.333 2.392-5.333 5.333s2.392 5.333 5.333 5.333zM16 10.666c1.471 0 2.667 1.196 2.667 2.667s-1.196 2.667-2.667 2.667c-1.471 0-2.667-1.196-2.667-2.667s1.196-2.667 2.667-2.667z">
            </path>
            <path
                d="M15.227 29.085c0.226 0.161 0.496 0.248 0.773 0.248s0.548-0.087 0.773-0.248c0.405-0.287 9.932-7.165 9.893-15.752 0-5.881-4.785-10.667-10.667-10.667s-10.667 4.785-10.667 10.66c-0.039 8.593 9.488 15.472 9.893 15.759zM16 5.333c4.412 0 8 3.588 8 8.007 0.028 5.917-5.851 11.231-8 12.973-2.148-1.744-8.028-7.059-8-12.98 0-4.412 3.588-8 8-8z">
            </path>
        </symbol>
        <symbol id="menu" viewBox="0 0 32 32">
            <path
                d="M5.333 8h21.333v2.667h-21.333v-2.667zM5.333 14.667h21.333v2.667h-21.333v-2.667zM5.333 21.333h21.333v2.667h-21.333v-2.667z">
            </path>
        </symbol>
        <symbol id="phone" viewBox="0 0 32 32">
            <path
                d="M23.61 16.391c-0.124-0.124-0.271-0.222-0.433-0.289s-0.335-0.102-0.51-0.102-0.349 0.035-0.51 0.102c-0.162 0.067-0.309 0.165-0.432 0.289l-2.125 2.125c-0.985-0.293-2.824-0.96-3.989-2.125s-1.832-3.004-2.125-3.989l2.125-2.125c0.124-0.124 0.222-0.271 0.289-0.432s0.102-0.335 0.102-0.51-0.034-0.348-0.102-0.51c-0.067-0.162-0.165-0.309-0.289-0.432l-5.333-5.333c-0.124-0.124-0.271-0.222-0.432-0.289s-0.335-0.102-0.51-0.102-0.348 0.035-0.51 0.102c-0.162 0.067-0.309 0.165-0.432 0.289l-3.616 3.616c-0.507 0.507-0.792 1.203-0.781 1.913 0.031 1.899 0.533 8.493 5.731 13.691s11.792 5.699 13.692 5.731h0.037c0.704 0 1.369-0.277 1.873-0.781l3.616-3.616c0.124-0.124 0.222-0.271 0.289-0.432s0.102-0.335 0.102-0.51-0.035-0.349-0.102-0.51c-0.067-0.162-0.165-0.309-0.289-0.432l-5.333-5.335zM23.44 25.34c-1.664-0.028-7.357-0.475-11.831-4.949-4.488-4.488-4.923-10.201-4.949-11.832l2.673-2.673 3.448 3.448-1.724 1.724c-0.157 0.157-0.272 0.35-0.335 0.562s-0.073 0.437-0.027 0.654c0.032 0.153 0.815 3.789 3.028 6.003s5.849 2.996 6.003 3.028c0.217 0.047 0.442 0.038 0.654-0.025s0.406-0.179 0.562-0.336l1.725-1.724 3.448 3.448-2.675 2.673z">
            </path>
        </symbol>
        <symbol id="star-empty" viewBox="0 0 32 32">
            <path stroke-linejoin="miter" stroke-linecap="butt" stroke-miterlimit="4" stroke-width="2.6667"
                d="M16 1.333c0.050 0 0.095 0.014 0.131 0.038 0.031 0.020 0.078 0.062 0.116 0.159l3.246 8.164c0.41 1.030 1.355 1.772 2.486 1.867l8.426 0.707c0.066 0.005 0.104 0.026 0.135 0.053 0.038 0.033 0.080 0.090 0.105 0.172 0.052 0.168 0.008 0.314-0.1 0.411l-6.419 5.751c-0.829 0.743-1.174 1.887-0.93 2.96l1.962 8.6c0.043 0.187-0.028 0.32-0.128 0.396-0.051 0.039-0.098 0.052-0.13 0.055-0.024 0.002-0.065-0.001-0.13-0.043l-7.213-4.608c-0.953-0.609-2.162-0.609-3.115 0l-7.213 4.608c-0.066 0.042-0.106 0.045-0.13 0.043-0.032-0.002-0.079-0.016-0.13-0.055-0.1-0.076-0.17-0.209-0.128-0.396l1.962-8.6c0.245-1.073-0.1-2.216-0.93-2.96l-6.419-5.751c-0.108-0.097-0.152-0.244-0.1-0.411 0.025-0.082 0.068-0.139 0.105-0.172 0.031-0.027 0.070-0.048 0.135-0.053l8.426-0.707c1.13-0.095 2.076-0.837 2.486-1.867l3.246-8.164c0.038-0.096 0.085-0.139 0.116-0.159 0.036-0.024 0.081-0.038 0.131-0.038z">
            </path>
        </symbol>
        <symbol id="star-filled" viewBox="0 0 32 32">
            <path
                d="M14.513 1.037c0.55-1.383 2.423-1.383 2.973 0l3.246 8.164c0.232 0.583 0.756 0.982 1.358 1.032l8.426 0.707c1.427 0.12 2.006 1.983 0.919 2.958l-6.419 5.752c-0.459 0.411-0.659 1.056-0.519 1.67l1.961 8.6c0.332 1.457-1.183 2.609-2.405 1.828l-7.213-4.609c-0.515-0.329-1.163-0.329-1.679 0l-7.214 4.609c-1.222 0.781-2.738-0.371-2.405-1.828l1.961-8.6c0.14-0.614-0.060-1.259-0.519-1.67l-6.42-5.752c-1.088-0.975-0.509-2.838 0.919-2.958l8.426-0.707c0.602-0.050 1.126-0.449 1.358-1.032l3.246-8.164z">
            </path>
        </symbol>
        <symbol id="close" viewBox="0 0 32 32">
            <path
                d="M21.589 8.459l-5.657 5.656-5.656-5.656-1.885 1.885 5.656 5.656-5.656 5.656 1.885 1.885 5.656-5.656 5.657 5.656 1.885-1.885-5.656-5.656 5.656-5.656-1.885-1.885z">
            </path>
        </symbol>
        <symbol id="twitter" viewBox="0 0 32 32">
            <path
                d="M22.901 5.657h3.68l-8.040 9.037 9.459 12.297h-7.406l-5.801-7.458-6.637 7.458h-3.682l8.6-9.666-9.074-11.668h7.594l5.243 6.817 6.064-6.817zM21.61 24.824h2.039l-13.163-17.115h-2.188l13.312 17.115z">
            </path>
        </symbol>
        <symbol id="youtube" viewBox="0 0 32 32">
            <path
                d="M28.791 9.604c-0.152-0.563-0.449-1.077-0.861-1.49s-0.925-0.711-1.489-0.864c-2.088-0.573-10.441-0.583-10.441-0.583s-8.352-0.009-10.441 0.539c-0.563 0.16-1.075 0.462-1.487 0.878s-0.711 0.929-0.867 1.493c-0.551 2.088-0.556 6.419-0.556 6.419s-0.005 4.352 0.541 6.419c0.307 1.143 1.207 2.045 2.351 2.353 2.109 0.573 10.44 0.583 10.44 0.583s8.353 0.009 10.441-0.537c0.563-0.153 1.077-0.45 1.49-0.862s0.712-0.925 0.866-1.488c0.552-2.087 0.556-6.416 0.556-6.416s0.027-4.353-0.543-6.441zM13.328 20.007l0.007-8 6.943 4.007-6.949 3.993z">
            </path>
        </symbol>
    </defs>
</svg>